<?xml version="1.0" standalone="no"?>
<!DOCTYPE svg PUBLIC "-//W3C//DTD SVG 20010904//EN"
 "http://www.w3.org/TR/2001/REC-SVG-20010904/DTD/svg10.dtd">
<svg version="1.0" xmlns="http://www.w3.org/2000/svg"
 width="1017.000000pt" height="725.000000pt" viewBox="0 0 1017.000000 725.000000"
 preserveAspectRatio="xMidYMid meet">

<g transform="translate(0.000000,725.000000) scale(0.100000,-0.100000)"
fill="#000000" stroke="none">
<path d="M4821 7228 c-5 -13 -86 -219 -181 -458 l-172 -435 -431 -435 c-238
-239 -621 -625 -852 -857 l-420 -423 367 -367 367 -368 -313 -790 -313 -790
375 -3 c206 -1 377 0 379 2 5 4 224 577 328 856 37 102 70 187 72 190 2 2 239
-231 526 -518 287 -287 527 -522 532 -522 5 0 247 237 537 527 290 290 529
525 531 523 3 -3 87 -225 187 -495 100 -269 189 -507 197 -528 l15 -37 374 0
c206 0 374 1 374 3 0 1 -141 358 -314 792 l-313 790 366 368 366 367 -455 458
c-250 251 -633 637 -851 857 l-395 400 -180 457 -179 457 -258 1 -257 0 -9
-22z m479 -1638 c106 -278 318 -833 473 -1235 154 -401 282 -739 284 -750 3
-15 -109 -133 -484 -508 l-488 -487 -484 484 c-368 368 -483 488 -479 502 3
11 123 325 268 699 144 374 356 928 472 1230 115 303 214 561 220 575 7 20 11
22 18 10 4 -8 94 -242 200 -520z m-1382 -644 l-332 -837 -259 258 -259 258
588 582 c323 321 589 581 591 580 1 -2 -147 -380 -329 -841z m2890 -28 l292
-293 -257 -257 -258 -258 -315 797 c-173 437 -323 816 -333 841 -16 41 9 19
280 -246 164 -160 430 -423 591 -584z"/>
<path d="M670 2128 c-22 -51 -653 -1644 -657 -1661 -5 -16 6 -17 123 -17 l129
0 81 213 81 212 334 3 c224 1 336 -1 343 -8 6 -6 45 -102 87 -213 l76 -202
127 -3 c69 -1 126 1 126 5 0 5 -150 386 -333 848 l-333 840 -87 3 c-83 3 -88
2 -97 -20z m225 -695 c66 -174 122 -320 123 -325 2 -4 -109 -8 -247 -8 -138 0
-251 3 -251 8 0 4 54 148 120 321 66 173 120 316 120 317 0 2 3 4 8 4 4 0 61
-143 127 -317z"/>
<path d="M5415 2008 c-49 -123 -598 -1507 -612 -1545 -4 -10 20 -13 124 -13
l130 0 43 112 c24 62 61 159 82 216 l40 102 338 0 338 0 36 -92 c20 -51 56
-146 80 -212 25 -65 47 -120 49 -122 2 -3 60 -3 129 -2 l124 3 -335 847 -336
848 -86 0 -87 0 -57 -142z m270 -570 c65 -172 120 -319 123 -325 3 -10 -51
-13 -248 -13 -197 0 -251 3 -248 13 69 186 244 637 249 637 3 0 59 -141 124
-312z"/>
<path d="M2115 2125 c-306 -67 -477 -284 -437 -555 15 -104 52 -179 119 -240
97 -89 212 -127 460 -156 240 -27 324 -59 363 -140 60 -121 -19 -265 -178
-325 -123 -46 -230 -46 -353 0 -99 38 -188 136 -189 210 0 23 -1 24 -67 18
-38 -4 -92 -7 -122 -7 l-54 0 6 -57 c9 -82 65 -191 135 -259 69 -68 204 -136
314 -158 330 -67 670 94 749 356 30 96 24 229 -14 311 -78 171 -232 247 -587
291 -183 23 -247 45 -302 103 -35 36 -48 73 -48 131 1 175 226 298 452 248
113 -25 196 -87 227 -169 l11 -27 120 0 120 0 -6 28 c-46 209 -193 351 -413
398 -82 17 -226 17 -306 -1z"/>
<path d="M3120 1285 l0 -835 120 0 120 0 0 586 c0 351 4 583 9 580 5 -4 104
-148 221 -321 l211 -315 68 0 67 0 215 320 c118 175 217 319 222 320 4 0 7
-263 7 -585 l0 -585 115 0 115 0 0 835 0 836 -97 -3 -96 -3 -269 -395 c-148
-217 -273 -395 -278 -395 -5 0 -130 178 -277 395 l-269 395 -102 3 -102 3 0
-836z"/>
<path d="M6210 2010 l0 -110 255 0 255 0 0 -725 0 -725 120 0 120 0 0 725 0
725 250 0 250 0 0 110 0 110 -625 0 -625 0 0 -110z"/>
<path d="M7670 1285 l0 -835 505 0 505 0 0 120 0 120 -385 0 -385 0 0 240 0
240 375 0 375 0 0 120 0 120 -375 0 -375 0 0 235 0 235 385 0 385 0 0 120 0
120 -505 0 -505 0 0 -835z"/>
<path d="M8920 1285 l0 -835 120 0 120 0 0 835 0 835 -120 0 -120 0 0 -835z"/>
<path d="M9496 1738 l-286 -381 0 -69 0 -69 317 -385 317 -384 155 0 c146 0
153 1 139 18 -355 418 -687 825 -681 835 6 10 509 668 595 780 l30 37 -150 0
-150 0 -286 -382z"/>
<path d="M10 170 l0 -160 95 0 c95 0 95 0 95 25 0 24 -2 25 -75 25 l-75 0 0
45 0 45 75 0 c68 0 75 2 75 20 0 18 -7 20 -76 20 l-75 0 3 48 3 47 72 3 c65 3
73 5 73 22 0 18 -7 20 -95 20 l-95 0 0 -160z"/>
<path d="M320 308 c-77 -53 -99 -130 -58 -207 13 -25 35 -53 49 -64 37 -27
106 -33 153 -13 35 15 41 15 56 1 18 -16 60 -21 60 -7 0 5 -11 19 -25 32 -23
21 -23 24 -10 51 36 68 3 174 -65 210 -49 26 -119 25 -160 -3z m130 -31 c31
-16 70 -73 70 -103 0 -12 -5 -35 -10 -50 l-11 -27 -27 26 c-24 23 -82 38 -82
22 0 -3 16 -19 35 -36 19 -17 35 -35 35 -40 0 -4 -16 -11 -35 -15 -49 -9 -103
21 -129 70 -18 36 -18 42 -5 80 24 69 98 104 159 73z"/>
<path d="M632 193 l3 -137 34 -23 c44 -30 98 -30 142 0 42 28 47 46 48 185 l1
112 -25 0 -25 0 0 -125 0 -125 -35 -17 c-33 -16 -37 -16 -70 0 l-35 17 0 125
c0 119 -1 125 -20 125 -20 0 -20 -5 -18 -137z"/>
<path d="M900 310 c0 -16 7 -20 30 -20 l30 0 0 -120 0 -120 -30 0 c-23 0 -30
-4 -30 -20 0 -18 7 -20 80 -20 72 0 80 2 80 19 0 14 -8 21 -27 23 l-28 3 0
115 0 115 28 3 c19 2 27 9 27 23 0 17 -8 19 -80 19 -73 0 -80 -2 -80 -20z"/>
<path d="M1110 171 c0 -154 1 -161 20 -161 18 0 20 7 20 55 l0 55 56 0 c48 0
59 4 85 29 39 39 41 106 5 148 -22 25 -31 28 -105 31 l-81 4 0 -161z m157 93
c20 -28 16 -71 -9 -88 -12 -9 -42 -16 -65 -16 l-43 0 0 58 c0 32 3 62 8 66 13
14 95 -1 109 -20z"/>
<path d="M1370 170 c0 -153 1 -160 20 -160 19 0 20 7 20 105 0 58 4 105 9 105
5 0 23 -22 41 -50 42 -66 60 -65 107 7 l38 56 3 -111 c2 -104 4 -112 22 -112
19 0 20 8 20 160 0 194 -8 202 -84 85 -27 -41 -51 -75 -55 -75 -3 0 -28 34
-55 75 -32 49 -55 75 -67 75 -18 0 -19 -10 -19 -160z"/>
<path d="M1710 170 l0 -160 95 0 c95 0 95 0 95 25 0 24 -2 25 -75 25 l-75 0 0
45 0 45 75 0 c68 0 75 2 75 20 0 18 -7 20 -76 20 l-75 0 3 48 3 47 73 3 c64 3
72 5 72 22 0 18 -7 20 -95 20 l-95 0 0 -160z"/>
<path d="M1950 170 c0 -153 1 -160 20 -160 19 0 20 7 20 105 0 58 4 105 9 105
5 0 41 -47 81 -105 40 -58 79 -105 86 -105 11 0 14 31 14 160 0 153 -1 160
-20 160 -19 0 -20 -7 -20 -112 l0 -112 -77 112 c-108 158 -113 156 -113 -48z"/>
<path d="M2230 311 c0 -17 8 -20 48 -23 l47 -3 3 -138 c2 -129 4 -137 22 -137
19 0 20 7 20 140 l0 140 45 0 c38 0 45 3 45 20 0 19 -7 20 -115 20 -107 0
-115 -1 -115 -19z"/>
<path d="M2620 171 c0 -154 1 -161 20 -161 18 0 20 7 20 55 l0 55 56 0 c48 0
59 4 85 29 39 39 41 106 5 148 -22 25 -31 28 -105 31 l-81 4 0 -161z m157 93
c20 -28 16 -71 -9 -88 -12 -9 -42 -16 -65 -16 l-43 0 0 58 c0 32 3 62 8 66 13
14 95 -1 109 -20z"/>
<path d="M2880 170 c0 -153 1 -160 20 -160 18 0 20 8 22 138 l3 137 42 3 c35
3 48 -2 68 -22 30 -30 31 -36 4 -70 -15 -19 -30 -26 -55 -26 -21 0 -34 -5 -34
-13 0 -7 25 -43 56 -80 46 -56 61 -67 86 -67 l30 0 -52 60 -52 60 27 12 c69
31 71 139 4 174 -17 8 -57 14 -99 14 l-70 0 0 -160z"/>
<path d="M3220 308 c-57 -39 -75 -72 -75 -138 1 -66 18 -99 75 -137 65 -45
170 -22 218 47 29 44 31 131 2 178 -44 72 -152 96 -220 50z m144 -37 c64 -43
75 -119 25 -175 -38 -44 -83 -54 -132 -31 -45 21 -70 58 -70 105 0 47 17 76
56 100 41 25 84 25 121 1z"/>
<path d="M3587 308 c-51 -30 -81 -93 -74 -155 16 -144 195 -192 274 -74 28 41
29 51 5 51 -10 0 -28 -13 -40 -29 -30 -42 -80 -56 -126 -37 -79 33 -98 129
-37 190 26 26 39 31 77 31 39 0 50 -5 75 -33 19 -21 37 -32 50 -30 20 3 20 4
-3 38 -46 68 -131 88 -201 48z"/>
<path d="M3860 202 c0 -146 7 -164 69 -183 50 -15 102 -5 135 26 25 24 26 27
26 155 0 123 -1 130 -20 130 -19 0 -20 -7 -20 -118 0 -107 -2 -121 -20 -137
-27 -24 -83 -24 -110 0 -18 16 -20 30 -20 137 0 111 -1 118 -20 118 -19 0 -20
-7 -20 -128z"/>
<path d="M4150 171 c0 -154 1 -161 20 -161 18 0 20 8 22 138 l3 137 47 -1 c55
0 78 -16 78 -55 0 -35 -32 -59 -78 -59 -43 0 -40 -10 30 -95 42 -50 59 -64 81
-64 33 -1 31 3 -25 70 -41 49 -45 59 -25 59 8 0 23 10 35 23 33 35 31 105 -4
138 -22 20 -38 24 -105 28 l-79 3 0 -161z"/>
<path d="M4420 170 l0 -160 90 0 c89 0 90 0 90 25 0 24 -2 25 -70 25 l-70 0 0
45 0 45 70 0 c63 0 70 2 70 20 0 18 -7 20 -70 20 l-70 0 0 50 0 50 70 0 c63 0
70 2 70 20 0 19 -7 20 -90 20 l-90 0 0 -160z"/>
<path d="M4660 170 c0 -152 1 -160 20 -160 18 0 20 8 22 113 l3 112 40 -57
c22 -32 48 -57 57 -58 11 0 33 23 55 57 l38 56 3 -111 c2 -104 4 -112 22 -112
19 0 20 8 20 160 0 194 -8 202 -84 85 -26 -41 -52 -73 -56 -70 -4 3 -29 36
-56 75 -29 44 -54 70 -66 70 -17 0 -18 -12 -18 -160z"/>
<path d="M5000 170 l0 -160 95 0 c95 0 95 0 95 25 0 24 -2 25 -76 25 l-75 0 3
43 3 42 73 3 c63 3 72 5 72 22 0 17 -9 19 -72 22 l-73 3 0 45 0 45 73 3 c64 3
72 5 72 22 0 18 -7 20 -95 20 l-95 0 0 -160z"/>
<path d="M5240 170 l0 -160 25 0 c24 0 24 1 27 108 l3 107 74 -108 c106 -153
111 -150 111 53 l0 160 -25 0 c-24 0 -24 -1 -27 -107 l-3 -108 -74 108 c-106
153 -111 150 -111 -53z"/>
<path d="M5520 311 c0 -17 8 -20 48 -23 l47 -3 3 -138 c2 -129 4 -137 22 -137
19 0 20 7 20 140 l0 140 45 0 c38 0 45 3 45 20 0 19 -7 20 -115 20 -107 0
-115 -1 -115 -19z"/>
<path d="M5963 315 c-28 -20 -37 -60 -20 -94 13 -26 12 -30 -16 -61 -24 -27
-28 -39 -23 -69 11 -74 100 -107 160 -60 25 20 28 20 45 5 17 -16 61 -22 61
-9 0 4 -12 20 -27 35 -23 25 -26 32 -15 48 16 26 15 37 -4 44 -10 4 -21 0 -28
-9 -10 -14 -14 -13 -34 8 l-23 25 25 25 c50 51 22 127 -47 127 -18 0 -42 -7
-54 -15z m83 -47 c9 -29 -31 -65 -52 -47 -15 12 -19 51 -7 62 15 16 52 6 59
-15z m-18 -148 l32 -39 -25 -17 c-20 -13 -31 -15 -50 -6 -39 18 -48 46 -24 76
11 14 23 26 27 26 4 0 22 -18 40 -40z"/>
<path d="M6369 315 c-35 -19 -54 -65 -42 -102 11 -33 63 -63 109 -63 18 0 42
-8 55 -19 22 -18 22 -20 7 -43 -9 -14 -28 -28 -42 -32 -30 -7 -74 8 -82 29 -8
19 -54 20 -54 1 0 -23 50 -65 85 -72 92 -17 165 49 139 125 -9 26 -25 34 -131
61 -36 9 -43 15 -43 35 0 27 33 55 66 55 12 0 33 -9 47 -20 55 -43 80 -11 26
34 -35 30 -97 35 -140 11z"/>
<path d="M6600 206 c0 -119 1 -126 26 -155 30 -36 80 -48 135 -32 62 19 69 37
69 183 0 121 -1 128 -20 128 -19 0 -20 -7 -20 -119 0 -118 0 -120 -27 -141
-33 -26 -79 -21 -105 11 -15 17 -18 41 -18 135 0 107 -1 114 -20 114 -19 0
-20 -7 -20 -124z"/>
<path d="M6890 170 c0 -152 1 -160 19 -160 17 0 20 8 23 53 l3 52 55 5 c71 7
96 22 110 65 16 47 5 89 -32 120 -26 22 -39 25 -104 25 l-74 0 0 -160z m157
97 c23 -23 19 -68 -7 -89 -16 -13 -36 -18 -64 -16 l-41 3 -3 49 c-5 73 0 79
54 73 25 -2 53 -12 61 -20z"/>
<path d="M7160 171 c0 -154 1 -161 20 -161 18 0 20 7 20 55 l0 55 56 0 c48 0
59 4 85 29 39 39 41 106 5 148 -22 25 -31 28 -105 31 l-81 4 0 -161z m157 93
c20 -28 16 -71 -9 -88 -12 -9 -42 -16 -65 -16 l-43 0 0 58 c0 32 3 62 8 66 13
14 95 -1 109 -20z"/>
<path d="M7430 170 l0 -160 95 0 c88 0 95 2 95 20 0 17 -8 19 -72 22 l-73 3
-3 138 c-2 129 -4 137 -22 137 -19 0 -20 -7 -20 -160z"/>
<path d="M7606 318 c5 -7 32 -51 61 -97 49 -79 53 -89 53 -148 0 -56 2 -63 20
-63 18 0 20 7 20 65 0 63 3 70 60 160 l59 95 -27 0 c-23 0 -34 -11 -67 -65
-22 -36 -42 -65 -46 -65 -4 0 -26 29 -48 65 -33 52 -46 65 -67 65 -18 0 -23
-4 -18 -12z"/>
<path d="M8115 316 c-101 -44 -125 -178 -46 -257 43 -44 94 -57 151 -40 39 12
100 70 100 96 0 25 -35 17 -58 -14 -12 -16 -37 -34 -57 -41 -49 -16 -103 10
-129 64 -17 36 -18 43 -5 80 30 86 124 110 181 46 15 -16 37 -30 48 -30 24 0
25 4 3 40 -35 59 -122 85 -188 56z"/>
<path d="M8442 310 c-103 -63 -96 -233 11 -284 145 -68 290 83 215 223 -14 26
-38 51 -58 62 -47 25 -125 25 -168 -1z m149 -43 c100 -67 54 -212 -68 -212
-59 0 -103 43 -110 109 -5 43 -3 48 35 86 47 48 90 53 143 17z"/>
<path d="M8740 170 c0 -152 1 -160 20 -160 18 0 20 8 22 113 l3 112 39 -57
c22 -33 46 -58 56 -58 10 0 34 25 56 58 l39 57 3 -112 c2 -105 4 -113 22 -113
19 0 20 8 20 160 0 194 -7 201 -85 85 -27 -41 -52 -74 -55 -74 -3 0 -27 33
-55 74 -78 117 -85 109 -85 -85z"/>
<path d="M9080 171 c0 -154 1 -161 20 -161 18 0 20 7 20 55 l0 55 56 0 c48 0
59 4 85 29 39 39 41 106 5 148 -22 25 -31 28 -105 31 l-81 4 0 -161z m157 93
c20 -28 16 -71 -9 -88 -12 -9 -42 -16 -65 -16 l-43 0 0 58 c0 32 3 62 8 66 13
14 95 -1 109 -20z"/>
<path d="M9361 178 c-34 -84 -61 -156 -61 -160 0 -5 9 -8 20 -8 15 0 26 13 40
45 l20 46 61 -3 62 -3 16 -42 c12 -34 20 -43 39 -43 19 0 23 4 18 18 -65 177
-122 302 -137 302 -12 0 -32 -39 -78 -152z m102 25 c24 -68 23 -73 -21 -73
-21 0 -41 2 -44 5 -7 7 32 115 41 115 4 0 15 -21 24 -47z"/>
<path d="M9620 171 c0 -153 1 -161 20 -161 18 0 20 8 22 111 l3 111 75 -111
c105 -155 110 -153 110 49 0 152 -1 160 -20 160 -18 0 -20 -8 -22 -112 l-3
-111 -76 109 c-42 60 -83 110 -92 112 -15 3 -17 -13 -17 -157z"/>
<path d="M9890 326 c0 -2 25 -44 55 -93 52 -85 55 -93 55 -156 0 -60 2 -67 20
-67 18 0 20 7 20 62 0 58 3 66 60 155 33 51 60 95 60 98 0 3 -11 5 -24 5 -19
0 -33 -15 -68 -71 l-45 -71 -42 71 c-34 56 -48 71 -67 71 -13 0 -24 -2 -24 -4z"/>
</g>
</svg>
