<?xml version="1.0" standalone="no"?>
<!DOCTYPE svg PUBLIC "-//W3C//DTD SVG 20010904//EN"
 "http://www.w3.org/TR/2001/REC-SVG-20010904/DTD/svg10.dtd">
<svg version="1.0" xmlns="http://www.w3.org/2000/svg"
 width="1755.163119pt" height="1162.699282pt" viewBox="0 0 1755.163119 1162.699282"
 preserveAspectRatio="xMidYMid meet">
<metadata>
Created by potrace 1.12, written by Peter Selinger 2001-2015
</metadata>
<g transform="translate(-7.000000,1174.699282) scale(0.100000,-0.100000)"
fill="#000000" stroke="none">
<path d="M9236 10627 c-225 -617 -411 -1125 -415 -1129 -3 -4 -190 499 -415
1118 -226 618 -413 1121 -417 1117 -9 -9 -1629 -4456 -1637 -4490 l-4 -23
2471 0 c1359 0 2471 4 2471 8 0 4 -65 185 -144 402 -79 217 -448 1232 -821
2255 -372 1023 -678 1861 -679 1862 -1 1 -185 -503 -410 -1120z m553 -787
l131 -365 -317 -870 -318 -870 -272 -3 c-150 -1 -273 1 -273 5 0 25 905 2491
910 2481 4 -7 66 -177 139 -378z m-1519 -369 l273 -750 -180 -493 -181 -493
-546 -3 c-433 -2 -546 0 -546 10 0 19 894 2478 901 2478 3 0 128 -337 279
-749z m2104 -1238 c92 -255 170 -472 173 -483 5 -20 0 -20 -352 -20 -281 0
-356 3 -353 13 73 212 354 965 358 960 4 -5 82 -216 174 -470z"/>
<path d="M6061 6448 c-125 -336 -542 -1491 -538 -1494 2 -2 1487 -3 3299 -2
l3296 3 -234 645 c-128 355 -252 696 -275 758 l-41 112 -274 0 c-151 0 -274
-3 -274 -6 0 -5 231 -646 267 -741 4 -10 -109 -13 -545 -13 -514 0 -550 1
-557 18 -4 9 -60 165 -126 345 -65 180 -126 344 -134 363 l-14 34 -270 0
c-210 0 -271 -3 -271 -12 0 -7 60 -177 133 -378 l133 -365 -814 -3 c-449 -1
-817 -1 -818 1 -2 1 58 169 131 372 74 203 135 373 135 377 0 4 -123 8 -274 8
l-273 0 -138 -380 -138 -380 -549 0 c-301 0 -548 3 -548 6 0 5 231 646 267
742 4 9 -54 12 -271 12 l-276 0 -9 -22z"/>
<path d="M3570 3063 c-368 -26 -579 -86 -700 -199 -161 -151 -171 -456 -19
-604 133 -129 307 -169 864 -200 295 -16 381 -28 446 -61 73 -37 75 -135 4
-179 -77 -48 -150 -55 -580 -55 -347 0 -761 15 -832 31 -22 4 -23 2 -23 -71 0
-62 3 -75 16 -75 9 0 107 -9 217 -20 798 -78 1408 -41 1679 102 170 90 259
274 229 475 -32 218 -192 324 -556 368 -66 8 -239 22 -385 30 -318 19 -412 30
-466 56 -48 23 -70 63 -60 111 20 101 139 128 566 128 230 0 363 -6 663 -26
l97 -7 0 72 c0 39 -3 71 -7 71 -5 0 -87 9 -183 20 -309 34 -743 49 -970 33z"/>
<path d="M640 2413 c-222 -351 -428 -675 -457 -720 l-53 -83 99 0 99 0 107
170 107 170 526 0 527 0 110 -170 110 -169 402 -1 402 0 -269 408 c-148 224
-361 547 -473 717 l-205 310 -314 3 -314 2 -404 -637z m638 16 c111 -168 202
-308 202 -312 0 -4 -187 -7 -415 -7 -228 0 -415 2 -415 5 0 3 91 150 202 326
155 245 204 317 213 307 6 -7 102 -151 213 -319z"/>
<path d="M5160 2330 l0 -720 90 0 90 0 0 562 c0 449 3 560 13 550 6 -7 185
-259 397 -560 l386 -547 210 -3 210 -2 379 550 c208 303 382 553 387 556 4 3
8 -245 8 -550 l0 -556 365 0 365 0 0 720 0 720 -367 0 -368 -1 -338 -489
c-186 -270 -342 -488 -346 -486 -4 3 -160 223 -346 490 l-339 486 -398 0 -398
0 0 -720z"/>
<path d="M8740 2413 c-222 -351 -428 -675 -457 -720 l-53 -83 99 0 99 0 107
170 107 170 526 0 527 0 110 -170 110 -169 402 -1 402 0 -269 408 c-148 224
-361 547 -473 717 l-205 310 -314 3 -314 2 -404 -637z m638 16 c111 -168 202
-308 202 -312 0 -4 -187 -7 -415 -7 -228 0 -415 2 -415 5 0 3 91 150 202 326
155 245 204 317 213 307 6 -7 102 -151 213 -319z"/>
<path d="M10520 2970 l0 -80 385 0 385 0 0 -640 0 -640 365 0 365 0 0 640 0
640 385 0 385 0 0 80 0 80 -1135 0 -1135 0 0 -80z"/>
<path d="M12990 2330 l0 -720 970 0 970 0 0 80 0 80 -605 0 -605 0 0 250 0
250 535 0 535 0 0 80 0 80 -535 0 -535 0 0 230 0 230 605 0 605 0 0 80 0 80
-970 0 -970 0 0 -720z"/>
<path d="M15200 2330 l0 -720 360 0 360 0 0 233 0 234 90 56 89 56 273 -289
273 -290 428 0 c235 0 427 2 427 5 0 2 -193 208 -430 456 -236 249 -427 455
-425 460 3 4 185 121 406 261 l401 253 -170 3 -170 2 -593 -375 -594 -376 -3
375 -2 376 -360 0 -360 0 0 -720z"/>
<path d="M797 840 c-146 -37 -212 -138 -212 -325 1 -88 4 -108 29 -162 15 -33
40 -72 54 -86 45 -43 119 -70 201 -73 74 -3 75 -4 95 -39 20 -35 20 -35 89
-35 52 0 66 3 61 13 -5 6 -20 31 -35 54 l-26 42 42 45 c59 61 80 126 80 246 0
158 -50 254 -155 299 -59 25 -166 35 -223 21z m176 -55 c14 -9 33 -31 41 -50
36 -75 43 -289 14 -400 -10 -40 -10 -40 -25 -17 -13 19 -24 22 -79 22 -35 0
-64 -2 -64 -4 0 -2 12 -25 26 -50 15 -26 24 -50 21 -53 -4 -3 -27 -2 -53 2
-58 8 -107 53 -123 111 -18 67 -24 196 -12 277 16 115 41 155 111 181 27 10
118 -2 143 -19z"/>
<path d="M6817 836 c-79 -22 -127 -63 -167 -140 -32 -63 -34 -74 -34 -164 -1
-112 12 -161 57 -228 79 -119 283 -149 414 -61 37 25 56 48 83 102 33 66 35
74 35 175 0 97 -3 110 -31 171 -48 100 -121 147 -243 155 -39 2 -86 -2 -114
-10z m181 -53 c15 -11 35 -34 45 -50 36 -62 45 -274 16 -385 -29 -114 -174
-155 -255 -74 -44 44 -57 100 -58 246 0 175 24 243 98 276 41 19 120 12 154
-13z"/>
<path d="M7501 835 c-146 -41 -203 -128 -205 -310 -1 -168 48 -262 162 -306
90 -36 312 -32 312 5 0 11 -22 13 -102 12 -136 -1 -170 15 -213 99 -27 55 -29
65 -29 179 0 235 47 291 242 289 77 0 102 2 102 12 0 19 -25 25 -124 30 -64 4
-107 0 -145 -10z"/>
<path d="M14516 839 c-119 -28 -176 -116 -147 -226 17 -62 64 -97 182 -134 55
-18 115 -42 132 -53 29 -19 32 -28 35 -77 2 -47 -1 -58 -21 -77 -33 -31 -114
-43 -234 -36 -91 6 -103 5 -103 -9 0 -24 38 -30 175 -31 91 -1 132 3 171 17
113 39 163 148 115 252 -22 48 -75 80 -204 120 -107 34 -137 59 -137 114 0 89
31 106 193 104 105 -1 118 0 115 15 -2 12 -18 19 -53 24 -70 9 -173 8 -219 -3z"/>
<path d="M70 520 l0 -320 225 0 c218 0 225 1 225 20 0 19 -7 20 -160 20 l-160
0 0 135 0 135 140 0 c133 0 140 1 140 20 0 19 -7 20 -140 20 l-140 0 0 125 0
125 160 0 c153 0 160 1 160 20 0 19 -7 20 -225 20 l-225 0 0 -320z"/>
<path d="M1270 613 c0 -126 5 -244 10 -264 17 -59 52 -102 105 -129 43 -21 64
-25 145 -25 122 0 182 26 220 95 25 44 25 50 28 298 l4 252 -26 0 -26 0 0
-237 c0 -212 -3 -243 -19 -280 -28 -60 -64 -76 -162 -71 -89 4 -121 24 -139
87 -5 20 -10 141 -10 269 l0 232 -65 0 -65 0 0 -227z"/>
<path d="M1910 520 l0 -320 65 0 65 0 0 320 0 320 -65 0 -65 0 0 -320z"/>
<path d="M2160 521 l0 -321 65 0 65 0 0 114 0 114 108 4 c124 4 191 29 229 86
46 70 42 190 -8 246 -51 59 -92 69 -286 74 l-173 4 0 -321z m306 264 c45 -18
64 -63 64 -150 0 -128 -38 -165 -170 -165 l-70 0 0 165 0 165 70 0 c39 0 86
-6 106 -15z"/>
<path d="M2750 520 l0 -320 25 0 25 0 2 247 3 246 99 -247 98 -247 45 3 45 3
97 247 96 247 3 -250 2 -249 65 0 65 0 0 320 0 320 -63 0 -63 0 -89 -227 c-48
-126 -95 -244 -103 -263 l-14 -35 -105 263 -105 262 -64 0 -64 0 0 -320z"/>
<path d="M3540 520 l0 -320 225 0 c218 0 225 1 225 20 0 19 -7 20 -160 20
l-160 0 0 135 0 135 140 0 c133 0 140 1 140 20 0 19 -7 20 -140 20 l-140 0 0
125 0 125 160 0 c153 0 160 1 160 20 0 19 -7 20 -225 20 l-225 0 0 -320z"/>
<path d="M4090 520 l0 -320 25 0 25 0 2 234 3 235 188 -235 c180 -224 189
-234 222 -234 l35 0 0 320 0 320 -25 0 -25 0 -2 -225 -3 -224 -184 224 c-182
222 -185 225 -223 225 l-38 0 0 -320z"/>
<path d="M4660 820 c0 -19 7 -20 100 -20 l100 0 0 -300 0 -300 65 0 65 0 0
300 0 300 100 0 c93 0 100 1 100 20 0 19 -7 20 -265 20 -258 0 -265 -1 -265
-20z"/>
<path d="M5450 521 l0 -321 65 0 65 0 0 114 0 114 108 4 c124 4 191 29 229 86
46 70 42 190 -8 246 -51 59 -92 69 -286 74 l-173 4 0 -321z m306 264 c45 -18
64 -63 64 -150 0 -128 -38 -165 -170 -165 l-70 0 0 165 0 165 70 0 c39 0 86
-6 106 -15z"/>
<path d="M6030 520 l0 -320 60 0 59 0 3 128 3 127 54 0 53 0 72 -125 72 -125
67 -3 c37 -2 67 0 67 3 0 3 -33 64 -74 134 l-74 129 39 17 c47 22 73 49 94 97
21 52 19 96 -7 148 -45 87 -115 110 -340 110 l-148 0 0 -320z m315 266 c50
-21 68 -63 63 -152 -3 -65 -7 -77 -31 -101 -26 -26 -34 -28 -127 -31 l-100 -4
0 151 0 151 80 0 c47 0 95 -6 115 -14z"/>
<path d="M7850 613 c0 -126 5 -244 10 -264 17 -59 52 -102 105 -129 43 -21 64
-25 145 -25 122 0 182 26 220 95 25 44 25 50 28 298 l4 252 -26 0 -26 0 0
-237 c0 -212 -3 -243 -19 -280 -28 -60 -64 -76 -162 -71 -89 4 -121 24 -139
87 -5 20 -10 141 -10 269 l0 232 -65 0 -65 0 0 -227z"/>
<path d="M8490 520 l0 -320 60 0 59 0 3 128 3 127 54 0 53 0 72 -125 72 -125
67 -3 c37 -2 67 0 67 3 0 3 -33 64 -74 134 l-74 129 39 17 c47 22 73 49 94 97
21 52 19 96 -7 148 -45 87 -115 110 -340 110 l-148 0 0 -320z m315 266 c50
-21 68 -63 63 -152 -3 -65 -7 -77 -31 -101 -26 -26 -34 -28 -127 -31 l-100 -4
0 151 0 151 80 0 c47 0 95 -6 115 -14z"/>
<path d="M9090 520 l0 -320 225 0 c218 0 225 1 225 20 0 19 -7 20 -160 20
l-160 0 0 135 0 135 140 0 c133 0 140 1 140 20 0 19 -7 20 -140 20 l-140 0 0
125 0 125 160 0 c153 0 160 1 160 20 0 19 -7 20 -225 20 l-225 0 0 -320z"/>
<path d="M9630 520 l0 -320 25 0 25 0 2 247 3 246 99 -247 98 -247 45 3 45 3
97 247 96 247 3 -250 2 -249 65 0 65 0 0 320 0 320 -63 0 -63 0 -89 -227 c-48
-126 -95 -244 -103 -263 l-14 -35 -105 263 -105 262 -64 0 -64 0 0 -320z"/>
<path d="M10430 520 l0 -320 225 0 c218 0 225 1 225 20 0 19 -7 20 -160 20
l-160 0 0 135 0 135 140 0 c133 0 140 1 140 20 0 19 -7 20 -140 20 l-140 0 0
125 0 125 160 0 c153 0 160 1 160 20 0 19 -7 20 -225 20 l-225 0 0 -320z"/>
<path d="M10970 520 l0 -320 25 0 25 0 2 234 3 235 188 -235 c180 -224 189
-234 222 -234 l35 0 0 320 0 320 -25 0 -25 0 -2 -225 -3 -224 -184 224 c-182
222 -185 225 -223 225 l-38 0 0 -320z"/>
<path d="M11540 820 c0 -19 7 -20 100 -20 l100 0 0 -300 0 -300 65 0 65 0 0
300 0 300 100 0 c93 0 100 1 100 20 0 19 -7 20 -265 20 -258 0 -265 -1 -265
-20z"/>
<path d="M12492 813 c-29 -81 -211 -581 -217 -595 -6 -14 -2 -18 18 -18 22 0
28 9 58 95 l32 96 135 -3 135 -3 32 -90 33 -90 67 -3 c37 -2 65 1 63 6 -1 5
-55 149 -118 320 l-115 312 -57 0 c-52 0 -57 -2 -66 -27z m87 -228 c28 -77 51
-143 51 -147 0 -4 -52 -8 -116 -8 -89 0 -115 3 -111 13 2 6 28 78 58 159 31
86 56 143 60 135 4 -7 30 -75 58 -152z"/>
<path d="M12920 520 l0 -320 25 0 25 0 2 234 3 235 188 -235 c180 -224 189
-234 222 -234 l35 0 0 320 0 320 -25 0 -25 0 -2 -225 -3 -224 -184 224 c-182
222 -185 225 -223 225 l-38 0 0 -320z"/>
<path d="M13540 520 l0 -322 168 5 c189 5 224 13 286 69 68 59 90 121 90 248
0 127 -22 189 -90 248 -62 56 -97 64 -286 69 l-168 5 0 -322z m330 255 c44
-27 70 -79 82 -170 12 -94 -1 -229 -29 -282 -30 -57 -71 -76 -175 -81 l-88 -4
0 282 0 282 88 -4 c64 -3 98 -9 122 -23z"/>
<path d="M14930 613 c0 -126 5 -244 10 -264 17 -59 52 -102 105 -129 43 -21
64 -25 145 -25 122 0 182 26 220 95 25 44 25 50 28 298 l4 252 -26 0 -26 0 0
-237 c0 -212 -3 -243 -19 -280 -28 -60 -64 -76 -162 -71 -89 4 -121 24 -139
87 -5 20 -10 141 -10 269 l0 232 -65 0 -65 0 0 -227z"/>
<path d="M15560 521 l0 -321 65 0 65 0 0 114 0 114 108 4 c124 4 191 29 229
86 46 70 42 190 -8 246 -51 59 -92 69 -286 74 l-173 4 0 -321z m306 264 c45
-18 64 -63 64 -150 0 -128 -38 -165 -170 -165 l-70 0 0 165 0 165 70 0 c39 0
86 -6 106 -15z"/>
<path d="M16150 521 l0 -321 65 0 65 0 0 114 0 114 108 4 c124 4 191 29 229
86 46 70 42 190 -8 246 -51 59 -92 69 -286 74 l-173 4 0 -321z m306 264 c45
-18 64 -63 64 -150 0 -128 -38 -165 -170 -165 l-70 0 0 165 0 165 70 0 c39 0
86 -6 106 -15z"/>
<path d="M16730 520 l0 -320 205 0 c198 0 205 1 205 20 0 19 -7 20 -140 20
l-140 0 0 300 0 300 -65 0 -65 0 0 -320z"/>
<path d="M17050 835 c0 -3 50 -93 110 -200 l110 -195 0 -120 0 -120 65 0 65 0
0 121 0 122 91 166 c51 91 101 181 111 199 l20 32 -29 0 c-26 0 -35 -12 -122
-170 -51 -94 -94 -170 -96 -170 -2 0 -45 77 -95 170 l-92 170 -69 0 c-38 0
-69 -2 -69 -5z"/>
</g>
</svg>
