<?xml version="1.0" standalone="no"?>
<!DOCTYPE svg PUBLIC "-//W3C//DTD SVG 20010904//EN"
 "http://www.w3.org/TR/2001/REC-SVG-20010904/DTD/svg10.dtd">
<svg version="1.0" xmlns="http://www.w3.org/2000/svg"
 width="1000.000000pt" height="1080.000000pt" viewBox="0 0 1000.000000 1080.000000"
 preserveAspectRatio="xMidYMid meet">

<g transform="translate(0.000000,1080.000000) scale(0.100000,-0.100000)"
fill="#000000" stroke="none">
<path d="M0 5400 l0 -5400 5000 0 5000 0 0 5400 0 5400 -5000 0 -5000 0 0
-5400z m5540 3870 c564 -46 982 -136 1232 -268 119 -62 189 -126 230 -210 29
-58 33 -76 32 -142 -1 -92 -24 -149 -88 -218 l-46 -49 0 -628 0 -627 49 -54
c60 -65 86 -133 85 -225 -1 -301 -417 -490 -1306 -593 l-46 -5 -43 82 c-136
264 -388 714 -430 768 -15 19 -51 48 -81 65 -45 25 -64 29 -128 29 -64 0 -83
-4 -128 -29 -30 -17 -66 -46 -81 -65 -42 -54 -294 -504 -431 -769 -41 -80 -43
-82 -74 -77 -17 2 -76 10 -131 16 -499 54 -920 187 -1077 341 -141 137 -152
325 -27 462 l49 54 0 627 0 628 -46 49 c-64 69 -87 126 -88 218 -1 66 3 84 32
142 41 84 111 148 230 210 287 151 803 250 1472 282 130 6 710 -3 840 -14z
m-412 -2502 c469 -828 780 -1515 838 -1848 50 -294 -80 -647 -315 -848 -194
-167 -403 -246 -651 -246 -248 0 -457 79 -651 246 -235 202 -366 554 -315 848
58 333 369 1020 838 1848 81 143 114 192 128 192 14 0 47 -49 128 -192z
m-1952 -288 c187 -109 515 -200 901 -250 93 -12 178 -23 190 -26 21 -4 17 -13
-64 -182 -239 -496 -363 -825 -409 -1084 -18 -101 -15 -253 7 -361 7 -31 10
-60 7 -62 -8 -8 -277 61 -388 100 -304 106 -450 245 -453 430 -2 96 22 162 84
229 l49 54 0 596 c0 328 2 596 4 596 2 0 35 -18 72 -40z m3724 -556 l0 -596
49 -54 c62 -67 86 -133 84 -229 -3 -185 -149 -324 -453 -430 -111 -39 -380
-108 -388 -100 -3 2 0 31 7 62 22 108 25 260 7 361 -46 259 -170 588 -409
1084 -81 169 -85 178 -64 182 12 3 98 14 192 26 388 50 732 147 905 254 30 19
58 35 63 35 4 1 7 -267 7 -595z m-3743 -1218 c114 -81 325 -168 553 -227 63
-17 118 -33 121 -37 3 -4 14 -29 24 -57 57 -159 159 -318 285 -445 254 -255
623 -389 973 -352 424 45 786 291 971 662 24 47 51 108 61 135 10 28 21 53 24
57 3 4 58 20 121 37 228 59 439 146 553 227 26 19 49 34 52 34 3 0 5 -309 5
-686 l0 -687 36 -40 c76 -83 115 -224 95 -339 -44 -250 -292 -422 -783 -543
-368 -91 -741 -129 -1248 -129 -507 0 -880 38 -1248 129 -491 121 -739 293
-783 543 -20 115 19 256 95 339 l36 40 0 687 c0 377 2 686 5 686 3 0 26 -15
52 -34z m-965 -4183 c23 -20 23 -57 1 -74 -15 -11 -16 -11 -5 1 27 31 11 72
-33 83 -19 4 -19 5 -1 6 11 0 28 -6 38 -16z m-69 -8 c-3 -9 -8 -14 -10 -11 -3
3 -2 9 2 15 9 16 15 13 8 -4z m-1760 -114 c22 -61 43 -108 47 -104 4 4 24 56
45 116 21 59 42 107 47 107 11 0 9 -5 -42 -149 -23 -64 -44 -107 -53 -109 -15
-3 -17 0 -67 143 -15 44 -31 88 -36 99 -5 13 -3 17 6 14 8 -2 32 -55 53 -117z
m517 89 c0 -23 4 -30 20 -30 11 0 20 -4 20 -10 0 -5 -10 -10 -21 -10 -20 0
-21 -4 -17 -71 3 -55 8 -74 23 -85 23 -17 14 -29 -13 -15 -11 6 -22 25 -26 42
-10 51 -7 209 4 209 6 0 10 -13 10 -30z m515 16 c25 -11 33 -19 29 -30 -7 -19
-5 -19 -40 -1 -36 18 -55 19 -78 2 -28 -21 -9 -45 49 -62 87 -25 108 -74 54
-127 -29 -29 -33 -30 -90 -25 -68 6 -72 8 -64 29 5 13 12 14 40 5 50 -15 100
1 100 33 0 16 -8 28 -25 36 -87 40 -105 51 -108 67 -14 70 53 106 133 73z
m105 -16 c0 -25 4 -30 25 -30 16 0 25 -6 25 -15 0 -9 -9 -15 -25 -15 -24 0
-25 -3 -25 -60 0 -55 2 -62 25 -72 14 -6 25 -15 25 -20 0 -18 -31 -20 -55 -4
-24 16 -25 20 -25 131 0 96 3 115 15 115 10 0 15 -10 15 -30z m482 -32 l3 -62
36 32 c20 18 45 32 55 32 14 0 9 -9 -21 -40 l-39 -40 42 -60 c40 -57 41 -60
20 -60 -16 0 -32 14 -53 45 -16 25 -33 45 -37 45 -5 0 -8 -20 -8 -45 0 -38 -3
-45 -20 -45 -19 0 -20 7 -20 130 0 122 1 130 20 130 16 0 19 -8 22 -62z m193
30 c1 -20 -2 -24 -11 -17 -8 7 -14 6 -17 -3 -3 -7 -6 2 -6 20 -1 27 3 33 17
30 11 -2 17 -13 17 -30z m-44 -35 c13 -16 12 -17 -3 -4 -17 13 -22 21 -14 21
2 0 10 -8 17 -17z m-1502 -19 c12 -15 21 -40 21 -55 0 -29 0 -29 -65 -29 -72
0 -83 -12 -44 -51 17 -17 30 -20 65 -16 43 4 59 -5 28 -17 -45 -17 -106 3
-123 41 -45 98 56 206 118 127z m191 16 c17 -11 10 -13 -40 -10 -47 2 -75 -28
-75 -80 0 -55 26 -80 82 -80 27 0 42 -4 38 -10 -9 -15 -78 -12 -102 5 -50 35
-50 135 0 170 24 17 74 20 97 5z m265 -13 c20 -16 28 -35 32 -69 5 -42 3 -50
-25 -78 -41 -41 -83 -41 -124 0 -28 28 -30 36 -25 78 9 82 84 119 142 69z m85
7 c0 -14 2 -14 22 0 24 17 38 20 38 9 0 -5 -14 -16 -30 -25 -29 -17 -30 -19
-30 -93 0 -43 -4 -75 -10 -75 -6 0 -10 40 -10 100 0 60 4 100 10 100 6 0 10
-7 10 -16z m537 1 c30 -21 44 -75 32 -120 -25 -88 -143 -88 -168 0 -20 72 20
135 84 135 17 0 40 -7 52 -15z m198 -5 c0 -10 -8 -14 -27 -12 -58 6 -91 -42
-67 -100 11 -28 36 -40 74 -35 12 1 20 -4 20 -13 0 -19 -48 -25 -85 -10 -63
26 -68 148 -6 179 31 15 91 9 91 -9z m5494 -83 c8 -26 17 -47 21 -47 4 0 13
21 21 47 8 25 20 48 26 50 13 5 -22 -113 -38 -131 -12 -14 -18 -5 -45 69 -16
44 -20 65 -12 63 7 -3 19 -26 27 -51z m641 43 c15 -10 13 -11 -29 -13 -35 -3
-36 -22 -2 -37 69 -28 36 -101 -33 -74 -27 10 -18 22 17 20 38 -1 43 19 8 37
-13 7 -29 19 -34 29 -22 34 34 63 73 38z m330 -25 c0 -35 16 -47 26 -20 4 8
13 15 22 15 13 0 13 -3 -2 -19 -16 -18 -16 -21 -1 -50 19 -38 8 -40 -22 -3
l-22 27 -1 -27 c0 -16 -4 -28 -10 -28 -6 0 -10 30 -10 70 0 40 4 70 10 70 6 0
10 -16 10 -35z m580 32 c0 -4 -34 -104 -45 -136 -3 -8 -8 -11 -11 -8 -8 7 38
147 48 147 4 0 8 -2 8 -3z m110 -7 c0 -5 -11 -10 -25 -10 -15 0 -29 -8 -36
-22 -10 -18 -9 -20 6 -14 23 8 65 -19 65 -42 0 -41 -48 -56 -82 -25 -24 21
-23 64 3 97 20 25 69 37 69 16z m110 0 c0 -5 -11 -10 -25 -10 -14 0 -29 -8
-36 -21 -9 -18 -8 -20 9 -15 12 4 28 -1 43 -13 21 -16 22 -22 11 -45 -22 -48
-92 -22 -92 34 0 37 35 80 66 80 13 0 24 -4 24 -10z m98 -2 c21 -21 13 -45
-25 -77 l-38 -30 43 -1 c23 0 42 -4 42 -10 0 -5 -22 -10 -50 -10 -62 0 -65 15
-14 63 42 40 39 62 -8 53 -26 -5 -29 -4 -18 9 15 18 51 20 68 3z m104 -5 c39
-35 8 -122 -44 -123 -10 0 -18 5 -18 10 0 6 9 10 20 10 10 0 24 10 31 22 10
18 9 20 -6 15 -24 -10 -55 10 -55 36 0 44 38 61 72 30z m88 -43 c0 -33 4 -60
10 -60 6 0 10 -4 10 -10 0 -5 -13 -10 -30 -10 -16 0 -30 5 -30 10 0 6 5 10 10
10 6 0 10 20 10 45 0 38 -2 43 -17 38 -16 -6 -16 -4 1 15 29 34 36 27 36 -38z
m120 41 c-5 -11 -15 -23 -21 -26 -6 -5 -2 -13 11 -22 42 -29 8 -82 -43 -69
-37 9 -34 27 3 20 22 -5 31 -2 36 11 6 16 -3 28 -31 39 -6 2 -5 9 3 17 18 19
15 29 -8 29 -11 0 -20 5 -20 10 0 6 18 10 40 10 37 0 40 -2 30 -19z m108 11
c22 -14 27 -78 8 -107 -32 -49 -86 -21 -86 45 0 56 39 86 78 62z m-1587 -50
c-15 -5 -14 -59 2 -65 6 -2 9 -7 6 -11 -15 -17 -37 8 -41 47 -6 59 0 72 24 50
11 -10 15 -19 9 -21z m-361 13 c9 -10 9 -15 1 -15 -15 0 -14 -57 2 -63 6 -2 9
-8 4 -13 -12 -13 -34 18 -40 58 -7 49 8 64 33 33z m-172 -7 c23 -23 13 -38
-24 -38 -46 0 -41 -23 7 -30 27 -4 30 -7 16 -13 -28 -11 -44 -9 -61 9 -32 31
-14 84 29 84 12 0 26 -5 33 -12z m109 5 c14 -6 10 -9 -17 -13 -29 -4 -35 -9
-35 -30 0 -21 5 -26 33 -28 36 -4 34 -22 -3 -22 -28 0 -55 24 -55 50 0 22 25
50 45 50 7 0 22 -3 32 -7z m177 -9 c21 -20 20 -43 -1 -66 -20 -22 -46 -23 -67
-2 -31 30 -9 84 34 84 10 0 26 -7 34 -16z m86 6 c0 -4 -7 -10 -15 -14 -9 -3
-15 -19 -15 -41 0 -19 -4 -35 -10 -35 -5 0 -10 22 -10 49 0 45 2 49 25 49 14
0 25 -4 25 -8z m274 -6 c21 -20 20 -43 -1 -66 -20 -22 -46 -23 -67 -2 -31 30
-9 84 34 84 10 0 26 -7 34 -16z m113 9 c14 -6 10 -9 -17 -13 -29 -4 -35 -9
-35 -30 0 -21 5 -26 33 -28 36 -4 34 -22 -3 -22 -28 0 -55 24 -55 50 0 22 25
50 45 50 7 0 22 -3 32 -7z m250 0 c14 -6 10 -9 -17 -13 -29 -4 -35 -9 -35 -30
0 -21 5 -26 33 -28 36 -4 34 -22 -3 -22 -28 0 -55 24 -55 50 0 22 25 50 45 50
7 0 22 -3 32 -7z m107 -9 c21 -20 20 -43 -1 -66 -20 -22 -46 -23 -67 -2 -31
30 -9 84 34 84 10 0 26 -7 34 -16z m113 4 c7 -5 14 -5 18 2 10 16 42 12 49 -6
10 -25 7 -84 -4 -84 -5 0 -10 18 -10 41 0 33 -3 40 -17 37 -13 -2 -19 -14 -21
-41 -4 -50 -22 -47 -22 4 0 36 -2 40 -22 37 -19 -2 -24 -10 -26 -40 -5 -55
-22 -46 -22 10 0 48 0 49 33 49 17 0 37 -4 44 -9z m-327 -78 c0 -5 -4 -10 -10
-10 -5 0 -10 5 -10 10 0 6 5 10 10 10 6 0 10 -4 10 -10z"/>
<path d="M4800 9164 c-659 -17 -1249 -116 -1470 -246 -185 -110 -168 -256 41
-356 332 -158 1107 -249 1895 -222 939 33 1534 192 1534 410 0 142 -245 258
-700 334 -352 59 -869 90 -1300 80z m575 -54 c756 -37 1305 -168 1372 -327 12
-31 12 -38 -4 -71 -103 -210 -1068 -363 -2036 -324 -160 7 -359 19 -442 28
-568 58 -946 169 -1008 296 -16 33 -16 40 -4 71 55 131 432 243 1022 302 324
33 747 42 1100 25z"/>
<path d="M3681 8869 c-118 -23 -176 -83 -147 -153 48 -116 431 -127 510 -14
34 48 13 104 -52 137 -72 37 -210 50 -311 30z m274 -65 c73 -36 73 -72 -1
-109 -33 -17 -59 -20 -159 -20 -102 0 -127 3 -167 22 -51 23 -70 56 -45 80 8
9 39 24 69 35 72 25 244 21 303 -8z"/>
<path d="M4818 6488 c-343 -652 -509 -1072 -584 -1479 -25 -132 -25 -390 -1
-479 39 -146 121 -263 230 -328 61 -37 188 -84 198 -74 4 4 0 63 -7 132 -21
178 -29 735 -15 945 22 321 64 609 127 885 39 167 108 408 149 516 14 36 25
70 25 75 0 30 -27 -13 -122 -193z"/>
<path d="M2150 500 c0 -5 5 -10 10 -10 6 0 10 5 10 10 0 6 -4 10 -10 10 -5 0
-10 -4 -10 -10z"/>
<path d="M536 418 c-28 -39 -21 -48 39 -48 59 0 67 9 45 51 -15 27 -64 25 -84
-3z"/>
<path d="M986 424 c-50 -50 -21 -144 44 -144 48 0 80 50 66 104 -13 53 -75 75
-110 40z"/>
<path d="M1616 408 c-32 -46 -8 -118 39 -118 28 0 55 34 55 70 0 36 -27 70
-55 70 -13 0 -31 -10 -39 -22z"/>
<path d="M8994 325 c-4 -9 -2 -21 4 -27 16 -16 47 -5 47 17 0 26 -42 34 -51
10z"/>
<path d="M9106 331 c-11 -18 6 -42 28 -39 29 4 29 42 -1 46 -11 2 -24 -1 -27
-7z"/>
<path d="M9324 375 c-7 -18 3 -35 21 -35 18 0 26 15 19 34 -8 20 -33 21 -40 1z"/>
<path d="M9634 365 c-9 -38 3 -75 26 -75 23 0 35 37 26 75 -4 16 -13 25 -26
25 -13 0 -22 -9 -26 -25z"/>
<path d="M7515 340 c-4 -6 5 -10 19 -10 14 0 26 5 26 10 0 6 -9 10 -19 10 -11
0 -23 -4 -26 -10z"/>
<path d="M7794 336 c-10 -26 4 -48 28 -44 17 2 23 10 23 28 0 18 -6 26 -23 28
-13 2 -25 -3 -28 -12z"/>
<path d="M8154 336 c-10 -26 4 -48 28 -44 17 2 23 10 23 28 0 18 -6 26 -23 28
-13 2 -25 -3 -28 -12z"/>
<path d="M8624 336 c-10 -26 4 -48 28 -44 17 2 23 10 23 28 0 18 -6 26 -23 28
-13 2 -25 -3 -28 -12z"/>
</g>
</svg>
